<mxfile host="app.diagrams.net" modified="2021-07-23T15:54:55.403Z" agent="5.0 (Windows NT 10.0; Win64; x64) AppleWebKit/537.36 (KHTML, like Gecko) Chrome/91.0.4472.164 Safari/537.36" etag="mTjj6g3DpOl-TuUr9ua9" version="14.9.2" type="github">
  <diagram id="C5RBs43oDa-KdzZeNtuy" name="Page-1">
    <mxGraphModel dx="1550" dy="835" grid="1" gridSize="10" guides="1" tooltips="1" connect="1" arrows="1" fold="1" page="1" pageScale="1" pageWidth="827" pageHeight="1169" math="0" shadow="0">
      <root>
        <mxCell id="WIyWlLk6GJQsqaUBKTNV-0" />
        <mxCell id="WIyWlLk6GJQsqaUBKTNV-1" parent="WIyWlLk6GJQsqaUBKTNV-0" />
        <mxCell id="ElBxLmXVURE3lKghsFF9-0" value="Image" style="swimlane;fontStyle=1;align=center;verticalAlign=top;childLayout=stackLayout;horizontal=1;startSize=26;horizontalStack=0;resizeParent=1;resizeParentMax=0;resizeLast=0;collapsible=1;marginBottom=0;" vertex="1" parent="WIyWlLk6GJQsqaUBKTNV-1">
          <mxGeometry x="10" y="364" width="160" height="90" as="geometry" />
        </mxCell>
        <mxCell id="ElBxLmXVURE3lKghsFF9-2" value="" style="line;strokeWidth=1;fillColor=none;align=left;verticalAlign=middle;spacingTop=-1;spacingLeft=3;spacingRight=3;rotatable=0;labelPosition=right;points=[];portConstraint=eastwest;" vertex="1" parent="ElBxLmXVURE3lKghsFF9-0">
          <mxGeometry y="26" width="160" height="8" as="geometry" />
        </mxCell>
        <mxCell id="ElBxLmXVURE3lKghsFF9-3" value="+ MakeFromScheme&#xa;+ Load&#xa;+ Cancel" style="text;strokeColor=none;fillColor=none;align=left;verticalAlign=top;spacingLeft=4;spacingRight=4;overflow=hidden;rotatable=0;points=[[0,0.5],[1,0.5]];portConstraint=eastwest;" vertex="1" parent="ElBxLmXVURE3lKghsFF9-0">
          <mxGeometry y="34" width="160" height="56" as="geometry" />
        </mxCell>
        <mxCell id="ElBxLmXVURE3lKghsFF9-4" value="ImageManager" style="swimlane;fontStyle=1;align=center;verticalAlign=top;childLayout=stackLayout;horizontal=1;startSize=26;horizontalStack=0;resizeParent=1;resizeParentMax=0;resizeLast=0;collapsible=1;marginBottom=0;" vertex="1" parent="WIyWlLk6GJQsqaUBKTNV-1">
          <mxGeometry x="210" y="364" width="190" height="104" as="geometry" />
        </mxCell>
        <mxCell id="ElBxLmXVURE3lKghsFF9-6" value="" style="line;strokeWidth=1;fillColor=none;align=left;verticalAlign=middle;spacingTop=-1;spacingLeft=3;spacingRight=3;rotatable=0;labelPosition=right;points=[];portConstraint=eastwest;" vertex="1" parent="ElBxLmXVURE3lKghsFF9-4">
          <mxGeometry y="26" width="190" height="8" as="geometry" />
        </mxCell>
        <mxCell id="ElBxLmXVURE3lKghsFF9-7" value="+ LoadForScheme&#xa;+ RegisterLoaderForScheme&#xa;+ SetSyncImageCache&#xa;+ SetAsyncImageCache" style="text;strokeColor=none;fillColor=none;align=left;verticalAlign=top;spacingLeft=4;spacingRight=4;overflow=hidden;rotatable=0;points=[[0,0.5],[1,0.5]];portConstraint=eastwest;" vertex="1" parent="ElBxLmXVURE3lKghsFF9-4">
          <mxGeometry y="34" width="190" height="70" as="geometry" />
        </mxCell>
        <mxCell id="ElBxLmXVURE3lKghsFF9-8" value="ImageLoader" style="swimlane;fontStyle=1;align=center;verticalAlign=top;childLayout=stackLayout;horizontal=1;startSize=26;horizontalStack=0;resizeParent=1;resizeParentMax=0;resizeLast=0;collapsible=1;marginBottom=0;" vertex="1" parent="WIyWlLk6GJQsqaUBKTNV-1">
          <mxGeometry x="440" y="520" width="160" height="60" as="geometry" />
        </mxCell>
        <mxCell id="ElBxLmXVURE3lKghsFF9-10" value="" style="line;strokeWidth=1;fillColor=none;align=left;verticalAlign=middle;spacingTop=-1;spacingLeft=3;spacingRight=3;rotatable=0;labelPosition=right;points=[];portConstraint=eastwest;" vertex="1" parent="ElBxLmXVURE3lKghsFF9-8">
          <mxGeometry y="26" width="160" height="8" as="geometry" />
        </mxCell>
        <mxCell id="ElBxLmXVURE3lKghsFF9-11" value="+ Load" style="text;strokeColor=none;fillColor=none;align=left;verticalAlign=top;spacingLeft=4;spacingRight=4;overflow=hidden;rotatable=0;points=[[0,0.5],[1,0.5]];portConstraint=eastwest;" vertex="1" parent="ElBxLmXVURE3lKghsFF9-8">
          <mxGeometry y="34" width="160" height="26" as="geometry" />
        </mxCell>
        <mxCell id="ElBxLmXVURE3lKghsFF9-12" value="FileImageLoader" style="swimlane;fontStyle=1;align=center;verticalAlign=top;childLayout=stackLayout;horizontal=1;startSize=26;horizontalStack=0;resizeParent=1;resizeParentMax=0;resizeLast=0;collapsible=1;marginBottom=0;" vertex="1" parent="WIyWlLk6GJQsqaUBKTNV-1">
          <mxGeometry x="630" y="610" width="160" height="60" as="geometry" />
        </mxCell>
        <mxCell id="ElBxLmXVURE3lKghsFF9-14" value="" style="line;strokeWidth=1;fillColor=none;align=left;verticalAlign=middle;spacingTop=-1;spacingLeft=3;spacingRight=3;rotatable=0;labelPosition=right;points=[];portConstraint=eastwest;" vertex="1" parent="ElBxLmXVURE3lKghsFF9-12">
          <mxGeometry y="26" width="160" height="8" as="geometry" />
        </mxCell>
        <mxCell id="ElBxLmXVURE3lKghsFF9-15" value="+ Load" style="text;strokeColor=none;fillColor=none;align=left;verticalAlign=top;spacingLeft=4;spacingRight=4;overflow=hidden;rotatable=0;points=[[0,0.5],[1,0.5]];portConstraint=eastwest;" vertex="1" parent="ElBxLmXVURE3lKghsFF9-12">
          <mxGeometry y="34" width="160" height="26" as="geometry" />
        </mxCell>
        <mxCell id="ElBxLmXVURE3lKghsFF9-16" value="NetworkImageLoader" style="swimlane;fontStyle=1;align=center;verticalAlign=top;childLayout=stackLayout;horizontal=1;startSize=26;horizontalStack=0;resizeParent=1;resizeParentMax=0;resizeLast=0;collapsible=1;marginBottom=0;" vertex="1" parent="WIyWlLk6GJQsqaUBKTNV-1">
          <mxGeometry x="630" y="520" width="160" height="60" as="geometry" />
        </mxCell>
        <mxCell id="ElBxLmXVURE3lKghsFF9-17" value="" style="line;strokeWidth=1;fillColor=none;align=left;verticalAlign=middle;spacingTop=-1;spacingLeft=3;spacingRight=3;rotatable=0;labelPosition=right;points=[];portConstraint=eastwest;" vertex="1" parent="ElBxLmXVURE3lKghsFF9-16">
          <mxGeometry y="26" width="160" height="8" as="geometry" />
        </mxCell>
        <mxCell id="ElBxLmXVURE3lKghsFF9-18" value="+ Load" style="text;strokeColor=none;fillColor=none;align=left;verticalAlign=top;spacingLeft=4;spacingRight=4;overflow=hidden;rotatable=0;points=[[0,0.5],[1,0.5]];portConstraint=eastwest;" vertex="1" parent="ElBxLmXVURE3lKghsFF9-16">
          <mxGeometry y="34" width="160" height="26" as="geometry" />
        </mxCell>
        <mxCell id="ElBxLmXVURE3lKghsFF9-19" value="AssetImageLoader" style="swimlane;fontStyle=1;align=center;verticalAlign=top;childLayout=stackLayout;horizontal=1;startSize=26;horizontalStack=0;resizeParent=1;resizeParentMax=0;resizeLast=0;collapsible=1;marginBottom=0;" vertex="1" parent="WIyWlLk6GJQsqaUBKTNV-1">
          <mxGeometry x="630" y="430" width="160" height="60" as="geometry" />
        </mxCell>
        <mxCell id="ElBxLmXVURE3lKghsFF9-20" value="" style="line;strokeWidth=1;fillColor=none;align=left;verticalAlign=middle;spacingTop=-1;spacingLeft=3;spacingRight=3;rotatable=0;labelPosition=right;points=[];portConstraint=eastwest;" vertex="1" parent="ElBxLmXVURE3lKghsFF9-19">
          <mxGeometry y="26" width="160" height="8" as="geometry" />
        </mxCell>
        <mxCell id="ElBxLmXVURE3lKghsFF9-21" value="+ Load" style="text;strokeColor=none;fillColor=none;align=left;verticalAlign=top;spacingLeft=4;spacingRight=4;overflow=hidden;rotatable=0;points=[[0,0.5],[1,0.5]];portConstraint=eastwest;" vertex="1" parent="ElBxLmXVURE3lKghsFF9-19">
          <mxGeometry y="34" width="160" height="26" as="geometry" />
        </mxCell>
        <mxCell id="ElBxLmXVURE3lKghsFF9-22" value="SyncImageCache" style="swimlane;fontStyle=1;align=center;verticalAlign=top;childLayout=stackLayout;horizontal=1;startSize=26;horizontalStack=0;resizeParent=1;resizeParentMax=0;resizeLast=0;collapsible=1;marginBottom=0;" vertex="1" parent="WIyWlLk6GJQsqaUBKTNV-1">
          <mxGeometry x="440" y="100" width="160" height="80" as="geometry" />
        </mxCell>
        <mxCell id="ElBxLmXVURE3lKghsFF9-24" value="" style="line;strokeWidth=1;fillColor=none;align=left;verticalAlign=middle;spacingTop=-1;spacingLeft=3;spacingRight=3;rotatable=0;labelPosition=right;points=[];portConstraint=eastwest;" vertex="1" parent="ElBxLmXVURE3lKghsFF9-22">
          <mxGeometry y="26" width="160" height="8" as="geometry" />
        </mxCell>
        <mxCell id="ElBxLmXVURE3lKghsFF9-25" value="+ GetImage&#xa;+ SetImage" style="text;strokeColor=none;fillColor=none;align=left;verticalAlign=top;spacingLeft=4;spacingRight=4;overflow=hidden;rotatable=0;points=[[0,0.5],[1,0.5]];portConstraint=eastwest;" vertex="1" parent="ElBxLmXVURE3lKghsFF9-22">
          <mxGeometry y="34" width="160" height="46" as="geometry" />
        </mxCell>
        <mxCell id="ElBxLmXVURE3lKghsFF9-26" value="AsyncImageCache" style="swimlane;fontStyle=1;align=center;verticalAlign=top;childLayout=stackLayout;horizontal=1;startSize=26;horizontalStack=0;resizeParent=1;resizeParentMax=0;resizeLast=0;collapsible=1;marginBottom=0;" vertex="1" parent="WIyWlLk6GJQsqaUBKTNV-1">
          <mxGeometry x="440" y="210" width="160" height="80" as="geometry" />
        </mxCell>
        <mxCell id="ElBxLmXVURE3lKghsFF9-27" value="" style="line;strokeWidth=1;fillColor=none;align=left;verticalAlign=middle;spacingTop=-1;spacingLeft=3;spacingRight=3;rotatable=0;labelPosition=right;points=[];portConstraint=eastwest;" vertex="1" parent="ElBxLmXVURE3lKghsFF9-26">
          <mxGeometry y="26" width="160" height="8" as="geometry" />
        </mxCell>
        <mxCell id="ElBxLmXVURE3lKghsFF9-28" value="+ GetImage async&#xa;+ SetImage async" style="text;strokeColor=none;fillColor=none;align=left;verticalAlign=top;spacingLeft=4;spacingRight=4;overflow=hidden;rotatable=0;points=[[0,0.5],[1,0.5]];portConstraint=eastwest;" vertex="1" parent="ElBxLmXVURE3lKghsFF9-26">
          <mxGeometry y="34" width="160" height="46" as="geometry" />
        </mxCell>
        <mxCell id="ElBxLmXVURE3lKghsFF9-29" value="MemoryImageCache" style="swimlane;fontStyle=1;align=center;verticalAlign=top;childLayout=stackLayout;horizontal=1;startSize=26;horizontalStack=0;resizeParent=1;resizeParentMax=0;resizeLast=0;collapsible=1;marginBottom=0;" vertex="1" parent="WIyWlLk6GJQsqaUBKTNV-1">
          <mxGeometry x="630" y="100" width="160" height="80" as="geometry" />
        </mxCell>
        <mxCell id="ElBxLmXVURE3lKghsFF9-30" value="" style="line;strokeWidth=1;fillColor=none;align=left;verticalAlign=middle;spacingTop=-1;spacingLeft=3;spacingRight=3;rotatable=0;labelPosition=right;points=[];portConstraint=eastwest;" vertex="1" parent="ElBxLmXVURE3lKghsFF9-29">
          <mxGeometry y="26" width="160" height="8" as="geometry" />
        </mxCell>
        <mxCell id="ElBxLmXVURE3lKghsFF9-31" value="+ GetImage&#xa;+ SetImage" style="text;strokeColor=none;fillColor=none;align=left;verticalAlign=top;spacingLeft=4;spacingRight=4;overflow=hidden;rotatable=0;points=[[0,0.5],[1,0.5]];portConstraint=eastwest;" vertex="1" parent="ElBxLmXVURE3lKghsFF9-29">
          <mxGeometry y="34" width="160" height="46" as="geometry" />
        </mxCell>
        <mxCell id="ElBxLmXVURE3lKghsFF9-32" value="DiskImageCache" style="swimlane;fontStyle=1;align=center;verticalAlign=top;childLayout=stackLayout;horizontal=1;startSize=26;horizontalStack=0;resizeParent=1;resizeParentMax=0;resizeLast=0;collapsible=1;marginBottom=0;" vertex="1" parent="WIyWlLk6GJQsqaUBKTNV-1">
          <mxGeometry x="630" y="210" width="160" height="80" as="geometry" />
        </mxCell>
        <mxCell id="ElBxLmXVURE3lKghsFF9-33" value="" style="line;strokeWidth=1;fillColor=none;align=left;verticalAlign=middle;spacingTop=-1;spacingLeft=3;spacingRight=3;rotatable=0;labelPosition=right;points=[];portConstraint=eastwest;" vertex="1" parent="ElBxLmXVURE3lKghsFF9-32">
          <mxGeometry y="26" width="160" height="8" as="geometry" />
        </mxCell>
        <mxCell id="ElBxLmXVURE3lKghsFF9-34" value="+ GetImage&#xa;+ SetImage" style="text;strokeColor=none;fillColor=none;align=left;verticalAlign=top;spacingLeft=4;spacingRight=4;overflow=hidden;rotatable=0;points=[[0,0.5],[1,0.5]];portConstraint=eastwest;" vertex="1" parent="ElBxLmXVURE3lKghsFF9-32">
          <mxGeometry y="34" width="160" height="46" as="geometry" />
        </mxCell>
        <mxCell id="ElBxLmXVURE3lKghsFF9-39" value="ImageView" style="swimlane;fontStyle=1;align=center;verticalAlign=top;childLayout=stackLayout;horizontal=1;startSize=26;horizontalStack=0;resizeParent=1;resizeParentMax=0;resizeLast=0;collapsible=1;marginBottom=0;" vertex="1" parent="WIyWlLk6GJQsqaUBKTNV-1">
          <mxGeometry x="10" y="580" width="170" height="60" as="geometry" />
        </mxCell>
        <mxCell id="ElBxLmXVURE3lKghsFF9-41" value="" style="line;strokeWidth=1;fillColor=none;align=left;verticalAlign=middle;spacingTop=-1;spacingLeft=3;spacingRight=3;rotatable=0;labelPosition=right;points=[];portConstraint=eastwest;" vertex="1" parent="ElBxLmXVURE3lKghsFF9-39">
          <mxGeometry y="26" width="170" height="8" as="geometry" />
        </mxCell>
        <mxCell id="ElBxLmXVURE3lKghsFF9-42" value="+ SetImage:placeholderImage" style="text;strokeColor=none;fillColor=none;align=left;verticalAlign=top;spacingLeft=4;spacingRight=4;overflow=hidden;rotatable=0;points=[[0,0.5],[1,0.5]];portConstraint=eastwest;" vertex="1" parent="ElBxLmXVURE3lKghsFF9-39">
          <mxGeometry y="34" width="170" height="26" as="geometry" />
        </mxCell>
        <mxCell id="ElBxLmXVURE3lKghsFF9-47" value="" style="endArrow=open;html=1;endSize=12;startArrow=diamondThin;startSize=14;startFill=0;edgeStyle=orthogonalEdgeStyle;align=left;verticalAlign=bottom;exitX=0.5;exitY=0;exitDx=0;exitDy=0;" edge="1" parent="WIyWlLk6GJQsqaUBKTNV-1" source="ElBxLmXVURE3lKghsFF9-39" target="ElBxLmXVURE3lKghsFF9-3">
          <mxGeometry x="-0.6825" y="25" relative="1" as="geometry">
            <mxPoint x="70" y="520" as="sourcePoint" />
            <mxPoint x="230" y="520" as="targetPoint" />
            <Array as="points">
              <mxPoint x="95" y="500" />
              <mxPoint x="95" y="500" />
            </Array>
            <mxPoint as="offset" />
          </mxGeometry>
        </mxCell>
        <mxCell id="ElBxLmXVURE3lKghsFF9-57" value="" style="endArrow=block;dashed=1;endFill=0;endSize=12;html=1;entryX=1;entryY=0.5;entryDx=0;entryDy=0;" edge="1" parent="WIyWlLk6GJQsqaUBKTNV-1" source="ElBxLmXVURE3lKghsFF9-31" target="ElBxLmXVURE3lKghsFF9-25">
          <mxGeometry width="160" relative="1" as="geometry">
            <mxPoint x="30" y="57" as="sourcePoint" />
            <mxPoint x="910" y="257" as="targetPoint" />
          </mxGeometry>
        </mxCell>
        <mxCell id="ElBxLmXVURE3lKghsFF9-58" value="" style="endArrow=block;dashed=1;endFill=0;endSize=12;html=1;entryX=1;entryY=0.5;entryDx=0;entryDy=0;" edge="1" parent="WIyWlLk6GJQsqaUBKTNV-1" source="ElBxLmXVURE3lKghsFF9-34" target="ElBxLmXVURE3lKghsFF9-28">
          <mxGeometry width="160" relative="1" as="geometry">
            <mxPoint x="30" y="57" as="sourcePoint" />
            <mxPoint x="910" y="477" as="targetPoint" />
          </mxGeometry>
        </mxCell>
        <mxCell id="ElBxLmXVURE3lKghsFF9-59" value="" style="endArrow=block;dashed=1;endFill=0;endSize=12;html=1;" edge="1" parent="WIyWlLk6GJQsqaUBKTNV-1" source="ElBxLmXVURE3lKghsFF9-21" target="ElBxLmXVURE3lKghsFF9-8">
          <mxGeometry width="160" relative="1" as="geometry">
            <mxPoint x="470" y="477" as="sourcePoint" />
            <mxPoint x="540" y="477" as="targetPoint" />
            <Array as="points">
              <mxPoint x="600" y="477" />
              <mxPoint x="600" y="500" />
            </Array>
          </mxGeometry>
        </mxCell>
        <mxCell id="ElBxLmXVURE3lKghsFF9-60" value="" style="endArrow=block;dashed=1;endFill=0;endSize=12;html=1;entryX=0.993;entryY=0.225;entryDx=0;entryDy=0;entryPerimeter=0;" edge="1" parent="WIyWlLk6GJQsqaUBKTNV-1" source="ElBxLmXVURE3lKghsFF9-17" target="ElBxLmXVURE3lKghsFF9-10">
          <mxGeometry width="160" relative="1" as="geometry">
            <mxPoint x="30" y="30" as="sourcePoint" />
            <mxPoint x="910" y="1070" as="targetPoint" />
          </mxGeometry>
        </mxCell>
        <mxCell id="ElBxLmXVURE3lKghsFF9-61" value="" style="endArrow=block;dashed=1;endFill=0;endSize=12;html=1;exitX=-0.005;exitY=-0.192;exitDx=0;exitDy=0;exitPerimeter=0;" edge="1" parent="WIyWlLk6GJQsqaUBKTNV-1" source="ElBxLmXVURE3lKghsFF9-15">
          <mxGeometry width="160" relative="1" as="geometry">
            <mxPoint x="470" y="640" as="sourcePoint" />
            <mxPoint x="550" y="583" as="targetPoint" />
          </mxGeometry>
        </mxCell>
        <mxCell id="ElBxLmXVURE3lKghsFF9-69" value="" style="endArrow=diamondThin;endFill=0;endSize=24;html=1;entryX=0.5;entryY=0;entryDx=0;entryDy=0;exitX=0;exitY=0.5;exitDx=0;exitDy=0;" edge="1" parent="WIyWlLk6GJQsqaUBKTNV-1" source="ElBxLmXVURE3lKghsFF9-25" target="ElBxLmXVURE3lKghsFF9-4">
          <mxGeometry width="160" relative="1" as="geometry">
            <mxPoint x="370" y="220" as="sourcePoint" />
            <mxPoint x="560" y="394" as="targetPoint" />
          </mxGeometry>
        </mxCell>
        <mxCell id="ElBxLmXVURE3lKghsFF9-70" value="" style="endArrow=diamondThin;endFill=0;endSize=24;html=1;exitX=0;exitY=0.5;exitDx=0;exitDy=0;entryX=0.75;entryY=0;entryDx=0;entryDy=0;" edge="1" parent="WIyWlLk6GJQsqaUBKTNV-1" source="ElBxLmXVURE3lKghsFF9-28" target="ElBxLmXVURE3lKghsFF9-4">
          <mxGeometry width="160" relative="1" as="geometry">
            <mxPoint x="400" y="433" as="sourcePoint" />
            <mxPoint x="580" y="400" as="targetPoint" />
          </mxGeometry>
        </mxCell>
        <mxCell id="ElBxLmXVURE3lKghsFF9-72" value="Use" style="endArrow=open;endSize=12;dashed=1;html=1;exitX=1;exitY=0.5;exitDx=0;exitDy=0;entryX=0.008;entryY=0.391;entryDx=0;entryDy=0;entryPerimeter=0;" edge="1" parent="WIyWlLk6GJQsqaUBKTNV-1" source="ElBxLmXVURE3lKghsFF9-3" target="ElBxLmXVURE3lKghsFF9-7">
          <mxGeometry x="-0.0364" width="160" relative="1" as="geometry">
            <mxPoint x="170" y="230" as="sourcePoint" />
            <mxPoint x="330" y="230" as="targetPoint" />
            <mxPoint as="offset" />
          </mxGeometry>
        </mxCell>
        <mxCell id="ElBxLmXVURE3lKghsFF9-76" value="n" style="endArrow=open;html=1;endSize=12;startArrow=diamondThin;startSize=14;startFill=0;edgeStyle=orthogonalEdgeStyle;align=left;verticalAlign=bottom;entryX=0;entryY=0.5;entryDx=0;entryDy=0;" edge="1" parent="WIyWlLk6GJQsqaUBKTNV-1" source="ElBxLmXVURE3lKghsFF9-7" target="ElBxLmXVURE3lKghsFF9-11">
          <mxGeometry x="-0.8851" y="3" relative="1" as="geometry">
            <mxPoint x="400" y="433" as="sourcePoint" />
            <mxPoint x="560" y="433" as="targetPoint" />
            <mxPoint as="offset" />
          </mxGeometry>
        </mxCell>
      </root>
    </mxGraphModel>
  </diagram>
</mxfile>
